<?xml version="1.0" standalone="no"?>
<!DOCTYPE svg PUBLIC "-//W3C//DTD SVG 20010904//EN"
 "http://www.w3.org/TR/2001/REC-SVG-20010904/DTD/svg10.dtd">
<svg version="1.0" xmlns="http://www.w3.org/2000/svg"
 width="500.000000pt" height="500.000000pt" viewBox="0 0 500.000000 500.000000"
 preserveAspectRatio="xMidYMid meet">
<metadata>
Created by potrace 1.11, written by Peter Selinger 2001-2013
</metadata>
<g transform="translate(0.000000,500.000000) scale(0.100000,-0.100000)"
fill="#000000" stroke="none">
<path d="M0 2500 l0 -2500 2500 0 2500 0 0 2500 0 2500 -2500 0 -2500 0 0
-2500z m1825 1575 c205 -30 295 -65 364 -141 70 -75 83 -111 156 -439 15 -66
41 -160 57 -210 35 -106 168 -425 177 -424 3 0 38 37 76 81 39 44 148 164 244
267 96 102 242 259 324 349 82 89 193 199 246 244 53 45 119 103 146 129 73
69 122 99 163 99 47 0 96 -32 118 -78 15 -32 16 -45 6 -105 -25 -144 -108
-299 -275 -517 -148 -193 -472 -593 -635 -784 l-161 -190 21 -35 c166 -278
344 -506 633 -812 219 -231 341 -364 362 -393 38 -50 25 -145 -25 -190 -36
-32 -99 -17 -248 58 -169 85 -282 161 -424 284 -166 143 -334 320 -504 530
l-149 184 -146 -144 c-80 -79 -200 -193 -266 -253 -66 -60 -196 -184 -290
-275 -171 -167 -329 -291 -443 -347 -171 -84 -286 19 -253 226 21 130 34 147
390 501 180 179 412 414 516 523 158 166 187 201 178 215 -6 9 -64 100 -129
202 -125 195 -210 359 -367 705 -163 361 -200 471 -201 597 -1 68 2 79 24 102
50 54 145 66 315 41z"/>
</g>
</svg>
